<svg width="149" height="40" viewBox="0 0 149 40" fill="none" xmlns="http://www.w3.org/2000/svg">
<path d="M61.1721 0C67.3448 0 71.0484 2.2514 71.0484 7.07942C71.0484 10.1563 69.5619 12.2076 66.8409 13.1582C69.8642 14.0338 72.1569 16.2101 72.1569 20.0875C72.1569 26.4665 66.0347 28.0175 60.6682 28.0175H48.3986V0H61.1721ZM60.9454 16.3852H55.8561V22.2389H60.9454C63.2129 22.2389 64.6994 21.5134 64.6994 19.3121C64.6994 17.1107 63.1877 16.3852 60.9454 16.3852ZM60.4919 5.82864H55.8813V11.0069L60.4919 11.0569C62.4571 11.0569 63.5908 10.0563 63.5908 8.45528C63.5908 6.82926 62.4571 5.82864 60.4919 5.82864Z" fill="white"/>
<path d="M82.6882 28.0425V18.4615L71.6782 0H80.1436L86.3918 11.5822L92.64 0H101.105L90.0954 18.4615V28.0425H82.6882Z" fill="white"/>
<path d="M124.99 0V6.60412H117.053V28.0425H109.596V6.60412H101.609V0H124.99Z" fill="white"/>
<path d="M148.521 0V6.40399H135.647V10.7067H147.312V17.0857H135.647V21.6635H148.748V28.0675H128.164V0H148.521Z" fill="white"/>
<path d="M93.2949 39.825L96.2931 32.2703H98.4598L101.458 39.825H99.392L98.9637 38.6493H95.8144L95.3861 39.825H93.2949ZM96.3938 37.0232H98.359L97.578 34.8469C97.5024 34.6718 97.452 34.4716 97.3764 34.0714C97.3009 34.4716 97.2505 34.6467 97.1749 34.8469L96.3938 37.0232Z" fill="white"/>
<path d="M105.565 32.095C106.346 32.095 107.101 32.2451 107.782 32.5703V34.4715C107.303 34.0712 106.623 33.8461 105.917 33.8461C104.708 33.8461 103.524 34.4965 103.524 36.1475C103.524 37.6234 104.708 38.2238 105.917 38.2238C106.698 38.2238 107.429 37.9987 107.857 37.5734V39.5246C107.202 39.8498 106.446 39.9999 105.64 39.9999C103.549 39.9999 101.483 38.8742 101.483 36.1725C101.433 33.2957 103.499 32.095 105.565 32.095Z" fill="white"/>
<path d="M108.21 39.825L111.208 32.2703H113.375L116.373 39.825H114.307L113.879 38.6493H110.73L110.301 39.825H108.21ZM111.309 37.0232H113.274L112.493 34.8469C112.418 34.6718 112.367 34.4716 112.292 34.0714C112.216 34.4716 112.166 34.6467 112.09 34.8469L111.309 37.0232Z" fill="white"/>
<path d="M120.127 32.2703C122.848 32.2703 124.108 33.8462 124.108 36.0476C124.108 38.249 122.848 39.825 120.127 39.825H117.104V32.2703H120.127ZM120.127 33.9963H119.094V38.0989H120.127C121.336 38.0989 122.042 37.4735 122.042 36.0476C122.042 34.6217 121.336 33.9963 120.127 33.9963Z" fill="white"/>
<path d="M130.658 32.2703V33.9963H127.181V35.1471H130.331V36.8731H127.181V38.0989H130.709V39.825H125.166V32.2703H130.658Z" fill="white"/>
<path d="M140.333 32.2701V39.8248H138.317V35.7973L136.68 38.2739H135.521L133.883 35.7723V39.7998H131.868V32.2451H133.782L136.1 35.7973L138.418 32.2451H140.333V32.2701Z" fill="white"/>
<path d="M144.011 39.825V37.2484L141.038 32.2703H143.331L145.019 35.3972L146.707 32.2703H149L146.027 37.2484V39.825H144.011Z" fill="white"/>
<path d="M23.053 0.875732H23.5569H39.1774V15.9602C39.1774 15.9602 40.4371 1.57617 23.053 0.875732Z" fill="#EB214E"/>
<path d="M28.243 12.8576C28.243 10.5812 26.6305 9.15527 23.8087 9.15527H17.2582V16.5099L23.8087 16.5599C26.6305 16.5849 28.243 15.159 28.243 12.8576Z" fill="white"/>
<path d="M29.7797 28.3925C29.7797 25.2405 27.6634 24.2148 24.4385 24.2148H17.1825V32.545H24.4385C27.6634 32.5701 29.7797 31.5444 29.7797 28.3925Z" fill="white"/>
<path d="M0 9.25571V39.4746H8.94403V0.500244H8.81806L0 9.25571Z" fill="white"/>
</svg>
