<svg width="24" height="24" viewBox="0 0 24 24" fill="none" xmlns="http://www.w3.org/2000/svg">
<g clip-path="url(#clip0_25_3531)">
<path d="M12.0058 2C6.4927 2 2.00781 6.48578 2.00781 12C2.00781 17.5142 6.4927 22 12.0058 22C17.519 22 22.0039 17.5142 22.0039 12C22.0039 6.48578 17.519 2 12.0058 2ZM16.7608 17.1724C16.5983 17.3349 16.385 17.4167 16.1717 17.4167C15.9584 17.4167 15.745 17.3349 15.5827 17.1724L11.4168 13.0059C11.2601 12.8501 11.1727 12.6383 11.1727 12.4167V7C11.1727 6.53918 11.5459 6.16672 12.0058 6.16672C12.4658 6.16672 12.839 6.53918 12.839 7V12.0717L16.7608 15.9941C17.0865 16.3201 17.0865 16.8466 16.7608 17.1724Z" fill="#392EC9"/>
</g>
<defs>
<clipPath id="clip0_25_3531">
<rect width="19.996" height="20" fill="white" transform="translate(2.00781 2)"/>
</clipPath>
</defs>
</svg>
