<svg width="32" height="32" viewBox="0 0 32 32" fill="none" xmlns="http://www.w3.org/2000/svg">
<path d="M27.1888 9.53021L19.9169 16.4998L27.1888 23.4691C28.2704 24.5061 28.2704 26.1859 27.1888 27.2229C26.6483 27.7408 25.9398 28 25.2315 28C24.5221 28 23.8135 27.7412 23.2735 27.2229L16 20.2528L8.72714 27.2228C8.18676 27.7408 7.47813 27.9999 6.76929 27.9999C6.06066 27.9999 5.35251 27.7412 4.81165 27.2228C3.73 26.1863 3.73 24.5065 4.81165 23.4691L12.0833 16.4998L4.81124 9.53021C3.72959 8.49362 3.72959 6.81344 4.81124 5.77685C5.89269 4.74105 7.64487 4.74105 8.72673 5.77685L16 12.7465L23.2727 5.77685C24.3547 4.74105 26.1071 4.74105 27.1883 5.77685C28.2704 6.81344 28.2704 8.49362 27.1888 9.53021Z" fill="white"/>
</svg>
