<svg width="33" height="32" viewBox="0 0 33 32" fill="none" xmlns="http://www.w3.org/2000/svg">
<path d="M30.1014 9.20035C29.7852 8.02491 28.8585 7.09832 27.6832 6.78181C25.5361 6.19434 16.9476 6.19434 16.9476 6.19434C16.9476 6.19434 8.35945 6.19434 6.21237 6.75953C5.0597 7.07571 4.11033 8.02507 3.79416 9.20035C3.22913 11.3473 3.22913 15.7997 3.22913 15.7997C3.22913 15.7997 3.22913 20.2745 3.79416 22.399C4.11067 23.5743 5.03709 24.5009 6.21253 24.8174C8.38205 25.405 16.9479 25.405 16.9479 25.405C16.9479 25.405 25.5361 25.405 27.6832 24.8398C28.8586 24.5235 29.7852 23.5969 30.1017 22.4216C30.6666 20.2745 30.6666 15.8223 30.6666 15.8223C30.6666 15.8223 30.6892 11.3473 30.1014 9.20035ZM14.2132 19.913V11.6864L21.355 15.7997L14.2132 19.913Z" fill="white"/>
</svg>
