<svg width="24" height="24" viewBox="0 0 24 24" fill="none" xmlns="http://www.w3.org/2000/svg">
<path fill-rule="evenodd" clip-rule="evenodd" d="M21.6297 17.1635L17.1045 14.8397C16.921 14.7786 16.6764 14.7786 16.4929 14.962L14.6584 16.7966C14.4749 16.9801 14.2915 17.0412 14.0469 16.9189C11.2339 15.6347 8.29862 12.6994 6.95328 9.82531C6.89213 9.64186 6.95328 9.4584 7.07558 9.27495L8.97128 7.37925C9.09359 7.25694 9.15474 7.01234 9.03244 6.82888L6.70867 2.30366C6.58637 1.99791 6.28061 1.93675 6.03601 2.05906C4.99643 2.60942 4.14031 3.28209 3.46764 4.01591C2 5.60585 1.63309 7.68501 2.36691 9.64186C4.56837 15.4513 8.48207 19.365 14.2915 21.5664C16.2483 22.3002 18.3275 21.8722 19.9174 20.4657C20.6512 19.793 21.3239 18.9369 21.8743 17.8973C21.9966 17.6527 21.8743 17.347 21.6297 17.1635Z" fill="white"/>
</svg>
