<svg width="40" height="40" viewBox="0 0 40 40" fill="none" xmlns="http://www.w3.org/2000/svg">
<g clip-path="url(#clip0_25_3490)">
<path d="M4.99219 0C2.23076 0 -0.0078125 2.23858 -0.0078125 5V35C-0.0078125 37.7614 2.23076 40 4.99219 40H21.2946V27.1526C21.2946 25.7146 20.1289 24.5488 18.6909 24.5488C17.2529 24.5488 16.0872 23.3831 16.0872 21.9451V20.845C16.0872 19.407 17.2529 18.2412 18.6909 18.2412C20.1289 18.2412 21.2946 17.0755 21.2946 15.6375V12.944C21.2946 9.09144 24.4177 5.96836 28.2702 5.96836H30.8783C32.4445 5.96836 33.7143 7.23807 33.7143 8.80434C33.7143 10.3706 32.4446 11.6403 30.8783 11.6403H29.8188C28.5946 11.6403 27.6022 12.6327 27.6022 13.8569V15.4315C27.6022 16.9833 28.8602 18.2413 30.412 18.2413C32.1096 18.2413 33.4195 19.7352 33.1978 21.4182L33.1016 22.1482C32.9205 23.522 31.7494 24.5489 30.3637 24.5489C28.8386 24.5489 27.6022 25.7853 27.6022 27.3104V40H34.9922C37.7536 40 39.9922 37.7614 39.9922 35V5C39.9922 2.23858 37.7536 0 34.9922 0H4.99219Z" fill="#3A559F"/>
<path d="M18.6909 24.5488C20.1289 24.5488 21.2946 25.7146 21.2946 27.1526V40H27.6022V27.3104C27.6022 25.7853 28.8386 24.5489 30.3637 24.5489C31.7494 24.5489 32.9205 23.522 33.1016 22.1482L33.1978 21.4182C33.4195 19.7352 32.1096 18.2413 30.412 18.2413C28.8602 18.2413 27.6022 16.9833 27.6022 15.4315V13.8569C27.6022 12.6327 28.5946 11.6403 29.8188 11.6403H30.8783C32.4446 11.6403 33.7143 10.3706 33.7143 8.80434C33.7143 7.23807 32.4445 5.96836 30.8783 5.96836H28.2702C24.4177 5.96836 21.2946 9.09144 21.2946 12.944V15.6375C21.2946 17.0755 20.1289 18.2412 18.6909 18.2412C17.2529 18.2412 16.0872 19.407 16.0872 20.845V21.9451C16.0872 23.3831 17.2529 24.5488 18.6909 24.5488Z" fill="#3A559F"/>
<path d="M21.2946 24.5488V40H27.6022V24.5489H32.7852L33.6164 18.2413H27.6022V13.8569C27.6022 12.6327 28.5946 11.6403 29.8188 11.6403H33.7143V5.96836H28.2702C24.4177 5.96836 21.2946 9.09144 21.2946 12.944V18.2412H16.0872V24.5488H21.2946Z" fill="white"/>
</g>
<defs>
<clipPath id="clip0_25_3490">
<rect width="40" height="40" fill="white" transform="translate(-0.0078125)"/>
</clipPath>
</defs>
</svg>
