<svg width="33" height="32" viewBox="0 0 33 32" fill="none" xmlns="http://www.w3.org/2000/svg">
<path d="M22.8994 4H11.434C7.70248 4 4.66675 7.03573 4.66675 10.7673V22.2329C4.66675 25.9642 7.70248 29 11.434 29H22.8996C26.631 29 29.6667 25.9642 29.6667 22.2329V10.7673C29.6667 7.03573 26.631 4 22.8994 4V4ZM17.1667 23.3357C13.3974 23.3357 10.331 20.2693 10.331 16.5C10.331 12.7307 13.3974 9.66424 17.1667 9.66424C20.936 9.66424 24.0025 12.7307 24.0025 16.5C24.0025 20.2693 20.936 23.3357 17.1667 23.3357ZM24.1659 11.2763C23.052 11.2763 22.146 10.3703 22.146 9.25645C22.146 8.14256 23.052 7.23638 24.1659 7.23638C25.2798 7.23638 26.186 8.14256 26.186 9.25645C26.186 10.3703 25.2798 11.2763 24.1659 11.2763Z" fill="white"/>
<path d="M17.1658 11.1299C14.2048 11.1299 11.7957 13.5389 11.7957 16.5C11.7957 19.461 14.2048 21.8701 17.1658 21.8701C20.1269 21.8701 22.5359 19.461 22.5359 16.5C22.5359 13.5389 20.1269 11.1299 17.1658 11.1299Z" fill="white"/>
<path d="M24.1663 8.70215C23.8608 8.70215 23.6121 8.95087 23.6121 9.25642C23.6121 9.56198 23.8608 9.8107 24.1663 9.8107C24.4721 9.8107 24.7208 9.56217 24.7208 9.25642C24.7208 8.95068 24.4721 8.70215 24.1663 8.70215Z" fill="white"/>
</svg>
