<svg width="40" height="40" viewBox="0 0 40 40" fill="none" xmlns="http://www.w3.org/2000/svg">
<g clip-path="url(#clip0_25_3493)">
<path fill-rule="evenodd" clip-rule="evenodd" d="M9.52941 13.3737C9.52941 11.2584 11.2506 9.53723 13.3659 9.53723H26.6185C28.7338 9.53723 30.455 11.2584 30.455 13.3737V26.6263C30.455 28.7416 28.7338 30.4628 26.6185 30.4628H13.3659C11.2506 30.4628 9.52941 28.7416 9.52941 26.6263V13.3737ZM13.1035 19.9996C13.1035 23.7983 16.1939 26.8887 19.9917 26.8887C23.7905 26.8887 26.8809 23.7983 26.8809 19.9996C26.8809 16.2017 23.7905 13.1113 19.9917 13.1113C16.1939 13.1113 13.1035 16.2017 13.1035 19.9996ZM25.4722 12.9059C25.4722 13.8047 26.2033 14.5358 27.1021 14.5358C28.0009 14.5358 28.732 13.8047 28.732 12.9059C28.732 12.0071 28.0009 11.276 27.1021 11.276C26.2033 11.276 25.4722 12.0071 25.4722 12.9059ZM4.99219 40C2.23076 40 -0.0078125 37.7614 -0.0078125 35V5C-0.0078125 2.23858 2.23076 0 4.99219 0H34.9922C37.7536 0 39.9922 2.23858 39.9922 5V35C39.9922 37.7614 37.7536 40 34.9922 40H4.99219ZM26.6185 33.3733C30.3391 33.3733 33.3655 30.3469 33.3655 26.6263V13.3737C33.3655 9.65308 30.3391 6.62673 26.6185 6.62673H13.3659C9.64527 6.62673 6.61892 9.65308 6.61892 13.3737V26.6263C6.61892 30.3469 9.64527 33.3733 13.3659 33.3733H26.6185Z" fill="#D13C9A"/>
<path fill-rule="evenodd" clip-rule="evenodd" d="M19.9917 26.8887C16.1939 26.8887 13.1035 23.7983 13.1035 19.9996C13.1035 16.2017 16.1939 13.1113 19.9917 13.1113C23.7905 13.1113 26.8809 16.2017 26.8809 19.9996C26.8809 23.7983 23.7905 26.8887 19.9917 26.8887ZM16.014 19.9996C16.014 17.807 17.7992 16.0226 19.9917 16.0226C22.1852 16.0226 23.9695 17.807 23.9695 19.9996C23.9695 22.193 22.1852 23.9782 19.9917 23.9782C17.7992 23.9782 16.014 22.193 16.014 19.9996Z" fill="#D13C9A"/>
<path d="M19.9917 16.0226C17.7992 16.0226 16.014 17.807 16.014 19.9996C16.014 22.193 17.7992 23.9782 19.9917 23.9782C22.1852 23.9782 23.9695 22.193 23.9695 19.9996C23.9695 17.807 22.1852 16.0226 19.9917 16.0226Z" fill="#D13C9A"/>
<path fill-rule="evenodd" clip-rule="evenodd" d="M33.3655 26.6263C33.3655 30.3469 30.3391 33.3733 26.6185 33.3733H13.3659C9.64527 33.3733 6.61892 30.3469 6.61892 26.6263V13.3737C6.61892 9.65308 9.64527 6.62673 13.3659 6.62673H26.6185C30.3391 6.62673 33.3655 9.65308 33.3655 13.3737V26.6263ZM13.3659 9.53723H26.6185C28.7338 9.53723 30.455 11.2584 30.455 13.3737V26.6263C30.455 28.7416 28.7338 30.4628 26.6185 30.4628H13.3659C11.2506 30.4628 9.52941 28.7416 9.52941 26.6263V13.3737C9.52941 11.2584 11.2506 9.53723 13.3659 9.53723Z" fill="#D13C9A"/>
<path d="M27.1021 14.5358C26.2033 14.5358 25.4722 13.8047 25.4722 12.9059C25.4722 12.0071 26.2033 11.276 27.1021 11.276C28.0009 11.276 28.732 12.0071 28.732 12.9059C28.732 13.8047 28.0009 14.5358 27.1021 14.5358Z" fill="#D13C9A"/>
<path fill-rule="evenodd" clip-rule="evenodd" d="M33.3655 26.6263C33.3655 30.3469 30.3391 33.3733 26.6185 33.3733H13.3659C9.64527 33.3733 6.61892 30.3469 6.61892 26.6263V13.3737C6.61892 9.65308 9.64527 6.62673 13.3659 6.62673H26.6185C30.3391 6.62673 33.3655 9.65308 33.3655 13.3737V26.6263ZM13.3659 9.53723H26.6185C28.7338 9.53723 30.455 11.2584 30.455 13.3737V26.6263C30.455 28.7416 28.7338 30.4628 26.6185 30.4628H13.3659C11.2506 30.4628 9.52941 28.7416 9.52941 26.6263V13.3737C9.52941 11.2584 11.2506 9.53723 13.3659 9.53723Z" fill="white"/>
<path fill-rule="evenodd" clip-rule="evenodd" d="M19.9917 26.8887C16.1939 26.8887 13.1035 23.7983 13.1035 19.9996C13.1035 16.2017 16.1939 13.1113 19.9917 13.1113C23.7905 13.1113 26.8809 16.2017 26.8809 19.9996C26.8809 23.7983 23.7905 26.8887 19.9917 26.8887ZM16.014 19.9996C16.014 17.807 17.7992 16.0226 19.9917 16.0226C22.1852 16.0226 23.9695 17.807 23.9695 19.9996C23.9695 22.193 22.1852 23.9782 19.9917 23.9782C17.7992 23.9782 16.014 22.193 16.014 19.9996Z" fill="white"/>
<path d="M27.1021 14.5358C26.2033 14.5358 25.4722 13.8047 25.4722 12.9059C25.4722 12.0071 26.2033 11.276 27.1021 11.276C28.0009 11.276 28.732 12.0071 28.732 12.9059C28.732 13.8047 28.0009 14.5358 27.1021 14.5358Z" fill="white"/>
</g>
<defs>
<clipPath id="clip0_25_3493">
<rect width="40" height="40" fill="white" transform="translate(-0.0078125)"/>
</clipPath>
</defs>
</svg>
