<svg width="32" height="33" viewBox="0 0 32 33" fill="none" xmlns="http://www.w3.org/2000/svg">
<path d="M26.5384 26.5753C27.1148 26.5753 27.6142 26.385 28.0387 26.0092L20.7745 18.7432C20.6002 18.868 20.4312 18.9894 20.2717 19.1048C19.728 19.5054 19.2868 19.818 18.948 20.042C18.6093 20.2665 18.1586 20.4954 17.5959 20.729C17.0329 20.9629 16.5085 21.0795 16.0219 21.0795H16.0077H15.9934C15.5068 21.0795 14.9823 20.963 14.4194 20.729C13.8564 20.4954 13.4057 20.2665 13.0673 20.042C12.7285 19.818 12.2876 19.5055 11.7436 19.1048C11.5921 18.9937 11.424 18.8717 11.2422 18.7412L3.97656 26.0092C4.40106 26.385 4.90079 26.5753 5.4771 26.5753H26.5384Z" fill="#392EC9"/>
<path d="M4.63302 14.1671C4.08944 13.8046 3.6074 13.3895 3.18774 12.9219V23.9765L9.59046 17.5725C8.30955 16.6781 6.65917 15.5443 4.63302 14.1671Z" fill="#392EC9"/>
<path d="M27.3967 14.1671C25.4479 15.4864 23.7915 16.6222 22.4274 17.5751L28.8275 23.9768V12.9219C28.4172 13.3801 27.9403 13.7949 27.3967 14.1671Z" fill="#392EC9"/>
<path d="M26.5381 6.4248H5.47678C4.74202 6.4248 4.17712 6.67297 3.78138 7.1688C3.38533 7.66485 3.18762 8.28522 3.18762 9.02921C3.18762 9.63017 3.44999 10.2813 3.97448 10.9828C4.49897 11.6841 5.05708 12.2349 5.64851 12.6356C5.97274 12.8647 6.95051 13.5446 8.5818 14.675C9.46241 15.2853 10.2282 15.8173 10.8863 16.2764C11.4473 16.6673 11.931 17.0059 12.3304 17.2868C12.3763 17.319 12.4484 17.3706 12.5441 17.439C12.6472 17.5131 12.7777 17.6071 12.9387 17.7234C13.2487 17.9476 13.5062 18.1289 13.7113 18.2673C13.9161 18.4059 14.1643 18.5606 14.4554 18.7324C14.7463 18.904 15.0207 19.033 15.2782 19.1188C15.5358 19.2046 15.7742 19.2476 15.9936 19.2476H16.0078H16.0221C16.2414 19.2476 16.4798 19.2046 16.7375 19.1188C16.9949 19.033 17.2691 18.9042 17.5602 18.7324C17.8511 18.5606 18.0989 18.4055 18.3044 18.2673C18.5095 18.1289 18.767 17.9477 19.077 17.7234C19.2377 17.6071 19.3682 17.5131 19.4713 17.4393C19.567 17.3705 19.6391 17.3193 19.6852 17.2868C19.9964 17.0703 20.4813 16.7331 21.1332 16.2804C22.3194 15.456 24.0664 14.2427 26.3814 12.6356C27.0777 12.1491 27.6594 11.5622 28.1269 10.8754C28.5936 10.1887 28.8276 9.46837 28.8276 8.71465C28.8276 8.08492 28.6007 7.54608 28.148 7.09728C27.6948 6.64904 27.1581 6.4248 26.5381 6.4248Z" fill="#392EC9"/>
</svg>
