<svg width="24" height="24" viewBox="0 0 24 24" fill="none" xmlns="http://www.w3.org/2000/svg">
<path d="M12.2496 2C8.25647 2 5.00781 5.2493 5.00781 9.24321C5.00781 14.1998 11.4885 21.4763 11.7644 21.7837C12.0236 22.0724 12.4761 22.0719 12.7348 21.7837C13.0107 21.4763 19.4914 14.1998 19.4914 9.24321C19.4914 5.2493 16.2427 2 12.2496 2ZM12.2496 12.8875C10.2406 12.8875 8.60613 11.2527 8.60613 9.24321C8.60613 7.23376 10.2406 5.59899 12.2496 5.59899C14.2586 5.59899 15.8931 7.2338 15.8931 9.24325C15.8931 11.2527 14.2586 12.8875 12.2496 12.8875Z" fill="#392EC9"/>
</svg>
