<svg width="24" height="24" viewBox="0 0 24 24" fill="none" xmlns="http://www.w3.org/2000/svg">
<path fill-rule="evenodd" clip-rule="evenodd" d="M21.7991 13.7034C22.4392 8.31555 21.4916 4.91409 19.7823 3.37561L19.7832 3.37472C17.0245 0.747413 7.70783 0.358546 4.40738 3.49272C2.92522 5.02583 2.40316 7.27589 2.34594 10.0614C2.28873 12.8479 2.22079 18.0676 7.08475 19.4836H7.08921L7.08475 21.6461C7.08475 21.6461 7.05167 22.5221 7.61128 22.6982C8.21403 22.8935 8.50602 22.5442 10.2005 20.5171L10.5318 20.121C13.8609 20.4097 16.4175 19.7482 16.7081 19.6517C16.7681 19.6316 16.8531 19.6092 16.9585 19.5815L16.9586 19.5815L16.9586 19.5815C18.0343 19.2989 21.239 18.4569 21.7991 13.7034ZM11.9804 5.56382C11.6362 5.56382 11.6362 6.10018 11.9804 6.10465C14.6506 6.12521 16.8497 7.98641 16.8739 11.4004C16.8739 11.7606 17.4013 11.7562 17.3968 11.3959H17.3959C17.3673 7.71733 14.9662 5.58438 11.9804 5.56382ZM16.0129 10.8479C16.0084 11.2081 15.4819 11.1911 15.4899 10.8354C15.5311 9.05909 14.4574 7.66811 12.4192 7.51346C12.0759 7.48843 12.1117 6.94759 12.4559 6.97262C14.8061 7.14873 16.0567 8.81951 16.0129 10.8479ZM14.9289 13.1423C14.4873 12.8867 14.0376 13.0458 13.8517 13.297L13.4628 13.8003C13.2653 14.056 12.8961 14.022 12.8961 14.022C10.2017 13.3095 9.48119 10.49 9.48119 10.49C9.48119 10.49 9.44811 10.1083 9.69484 9.90358L10.1811 9.5013C10.4243 9.30821 10.5781 8.84336 10.3304 8.38655C9.83164 7.48535 9.45635 7.02937 9.20494 6.72391C9.12293 6.62426 9.05409 6.54063 8.99846 6.46278C8.76067 6.1651 8.40309 6.09805 8.03121 6.29919H8.02317C7.24991 6.75153 6.40334 7.59809 6.67421 8.46969C6.75435 8.62904 6.84612 8.84884 6.95721 9.11488L6.95721 9.11488C7.48675 10.3831 8.45499 12.7019 10.6925 14.5315C11.9646 15.5783 13.9777 16.6511 14.8323 16.8987L14.8404 16.9112C15.6825 17.1919 16.5013 16.3123 16.9385 15.5158V15.5095C17.1325 15.1242 17.0681 14.7595 16.7847 14.5208C16.2823 14.0309 15.5242 13.4901 14.9289 13.1423ZM14.1473 10.3877C14.1026 9.46607 13.6861 9.01731 12.827 8.96725C12.4792 8.94669 12.5114 8.40585 12.8556 8.42641C13.9855 8.48898 14.6131 9.15945 14.6703 10.3627C14.6864 10.723 14.1634 10.748 14.1473 10.3877Z" fill="white"/>
</svg>
