<svg width="33" height="32" viewBox="0 0 33 32" fill="none" xmlns="http://www.w3.org/2000/svg">
<g clip-path="url(#clip0_280_6640)">
<mask id="mask0_280_6640" style="mask-type:luminance" maskUnits="userSpaceOnUse" x="3" y="4" width="27" height="26">
<path d="M16.5005 29.3125C23.6198 29.3125 29.3911 23.7161 29.3911 16.8125C29.3911 9.90894 23.6198 4.3125 16.5005 4.3125C9.38119 4.3125 3.60986 9.90894 3.60986 16.8125C3.60986 23.7161 9.38119 29.3125 16.5005 29.3125Z" fill="white"/>
</mask>
<g mask="url(#mask0_280_6640)">
<path d="M16.5002 29.3281C23.7352 29.3281 29.6003 23.6407 29.6003 16.625C29.6003 9.60926 23.7352 3.92188 16.5002 3.92188C9.26526 3.92188 3.40015 9.60926 3.40015 16.625C3.40015 23.6407 9.26526 29.3281 16.5002 29.3281Z" fill="black" fill-opacity="0.47451"/>
</g>
<path d="M16.5 28.5C23.6193 28.5 29.3906 22.9036 29.3906 16C29.3906 9.09644 23.6193 3.5 16.5 3.5C9.3807 3.5 3.60938 9.09644 3.60938 16C3.60938 22.9036 9.3807 28.5 16.5 28.5Z" fill="white"/>
<path d="M22.9453 5.17505C16.7798 1.72327 8.89601 3.77171 5.33636 9.75037C1.77671 15.729 3.88916 23.3739 10.0547 26.8257C16.2201 30.2775 24.1039 28.229 27.6636 22.2504C31.2232 16.2717 29.1108 8.62683 22.9453 5.17505Z" fill="url(#paint0_linear_280_6640)"/>
<path d="M22.9453 26.8254C29.1108 23.3737 31.2233 15.7288 27.6636 9.75012C24.104 3.77147 16.2202 1.72303 10.0547 5.17481C3.88923 8.62658 1.77678 16.2715 5.33643 22.2501C8.89607 28.2288 16.7799 30.2772 22.9453 26.8254Z" fill="url(#paint1_linear_280_6640)"/>
<path d="M3.60938 16C3.60938 22.9036 9.3807 28.5 16.5 28.5C23.6193 28.5 29.3906 22.9036 29.3906 16C29.3906 9.09644 23.6193 3.5 16.5 3.5C9.3807 3.5 3.60938 9.09644 3.60938 16Z" fill="url(#paint2_linear_280_6640)"/>
<path d="M7.24272 7.3208C6.49822 8.06594 5.85229 8.89807 5.31982 9.79797C7.20469 11.5865 9.23435 13.4846 10.062 14.3494C11.4622 15.8126 14.3811 17.9501 16.5096 17.7041C17.3502 18.2773 19.2547 19.5617 19.8914 19.8662C19.8789 20.1613 19.9398 20.4606 20.0493 20.7577C20.6462 22.3777 22.8776 23.4302 21.5788 25.1568C24.1356 23.6544 24.8157 21.147 23.7323 19.3586C23.0558 18.2419 22.0716 17.8753 21.2523 18.1423C20.7616 17.6042 18.8099 16.0326 18.0913 15.4589C17.6331 13.4608 14.8543 11.3998 13.0842 10.5059C12.0023 9.95952 9.52768 8.60964 7.24272 7.3208Z" fill="black" fill-opacity="0.47451"/>
<path d="M18.1149 16.9724C16.0495 18.8412 12.0759 15.8769 10.3988 14.0152C8.67371 12.1003 2.23243 5.64205 1.76162 5.22319C1.29083 4.80435 0.915874 4.2871 1.33217 3.77247C1.76555 3.27129 2.36486 3.52029 2.88464 3.88056C3.40445 4.24084 11.2504 9.01974 13.5386 10.2614C15.7633 11.4685 19.5744 14.627 18.1149 16.9724Z" fill="url(#paint3_linear_280_6640)"/>
<path d="M21.4282 18.8168C13.3672 25.7899 6.77422 19.107 5.75269 16.792C6.35677 20.8102 9.14903 24.4061 13.3672 25.7899C16.553 26.835 21.6367 26.8108 23.9158 22.8291L21.4282 18.8168Z" fill="url(#paint4_linear_280_6640)"/>
<path d="M21.3952 19.4729C20.7367 19.7654 20.8079 19.9767 20.2232 19.8855C19.82 19.8227 16.3267 17.2549 16.3267 17.2549C16.1496 16.8429 16.362 16.2764 16.761 15.8281C17.131 15.357 17.6588 15.0386 18.1111 15.1215C18.1111 15.1215 21.423 17.9062 21.5697 18.2758C21.7823 18.8118 21.5543 18.7878 21.3952 19.4729Z" fill="#BFBFBF"/>
<path d="M21.5758 25.1531C24.178 23.7258 24.9354 21.2394 23.9079 19.4203C23.1094 18.0067 21.7983 17.7394 20.8928 18.4229C19.9945 19.101 19.9153 19.909 20.1832 20.7115C20.7297 22.3482 22.9275 23.4651 21.5758 25.1531Z" fill="#282828"/>
</g>
<defs>
<linearGradient id="paint0_linear_280_6640" x1="27.6636" y1="22.2504" x2="11.1835" y2="12.4382" gradientUnits="userSpaceOnUse">
<stop stop-color="#FFFF00"/>
<stop offset="1" stop-color="#FFFF00" stop-opacity="0"/>
</linearGradient>
<linearGradient id="paint1_linear_280_6640" x1="5.33643" y1="22.2501" x2="21.8165" y2="12.438" gradientUnits="userSpaceOnUse">
<stop stop-color="#00FFFF"/>
<stop offset="1" stop-color="#00FFFF" stop-opacity="0"/>
</linearGradient>
<linearGradient id="paint2_linear_280_6640" x1="16.5" y1="3.5" x2="16.5" y2="22.2458" gradientUnits="userSpaceOnUse">
<stop stop-color="#FF00FF"/>
<stop offset="1" stop-color="#FF00FF" stop-opacity="0"/>
</linearGradient>
<linearGradient id="paint3_linear_280_6640" x1="1.33227" y1="3.77241" x2="18.0417" y2="17.7666" gradientUnits="userSpaceOnUse">
<stop stop-color="#343434"/>
<stop offset="1" stop-color="#4D4D4D"/>
</linearGradient>
<linearGradient id="paint4_linear_280_6640" x1="22.137" y1="21.3131" x2="6.21755" y2="21.1832" gradientUnits="userSpaceOnUse">
<stop stop-color="#5596EA"/>
<stop offset="1" stop-color="#5596EA" stop-opacity="0"/>
</linearGradient>
<clipPath id="clip0_280_6640">
<rect width="33" height="32" fill="white"/>
</clipPath>
</defs>
</svg>
