<svg width="76" height="24" viewBox="0 0 76 24" fill="none" xmlns="http://www.w3.org/2000/svg">
<g clip-path="url(#clip0_280_6657)">
<path d="M7.52069 0H-0.000244141V7.26247H7.52069V0Z" fill="#FB4725"/>
<path d="M16.2671 0H8.49414V7.26247H16.2671V0Z" fill="#FF7B39"/>
<path d="M24.7615 0H17.2356V7.26247H24.7615V0Z" fill="#FC9B3A"/>
<path d="M7.52045 8.27344H-0.000488281V15.7743H7.52045V8.27344Z" fill="#22B45C"/>
<path d="M16.2671 8.27344H8.49414V15.7743H16.2671V8.27344Z" fill="#91CA06"/>
<path d="M24.7615 8.27344H17.2356V15.7743H24.7615V8.27344Z" fill="#D6D230"/>
<path d="M7.52045 16.7373H-0.000488281V23.9998H7.52045V16.7373Z" fill="#0066B6"/>
<path d="M16.2671 16.7373H8.49414V23.9998H16.2671V16.7373Z" fill="#429ACC"/>
<path d="M24.7615 16.7373H17.2356V23.9998H24.7615V16.7373Z" fill="#6CBADD"/>
<path d="M3.21169 5.99379H4.49648V2.32203H5.92951V1.27295H1.72925V2.32203H3.21169V5.99379Z" fill="white"/>
<path d="M13.0453 1.27295H11.7605V5.99379H13.0453V1.27295Z" fill="white"/>
<path d="M19.9635 2.7798L21.4658 5.99379H23.1755V1.27295H21.9896V4.52032L20.5071 1.27295H18.7776V5.99379H19.9635V2.7798Z" fill="white"/>
<path d="M5.99854 9.61768H4.44198L2.96447 11.3534V9.61768H1.67969V14.3385H2.96447V12.4263L4.54081 14.3385H6.15667L3.92806 11.8398L5.99854 9.61768Z" fill="white"/>
<path d="M13.9349 13.4325H11.8595V12.3834H13.7867V11.4774H11.8595V10.5714H13.8361V9.61768H10.5747V14.3385H13.9349V13.4325Z" fill="white"/>
<path d="M22.6812 10.9195C22.6812 10.1088 22.024 9.61768 20.922 9.61768H18.9751V14.3385H20.2105V12.4788H20.4674C20.8924 12.4788 20.9813 12.6075 21.1839 13.1321L21.6287 14.3385H23.0123L22.3551 12.7315C22.2167 12.4025 22.0833 12.1784 21.8609 12.0353C22.3897 11.8446 22.6812 11.4488 22.6812 10.9195ZM21.3964 11.0149C21.3964 11.4822 20.9369 11.5775 20.5514 11.5775H20.2105V10.5285H20.5811C21.1691 10.5237 21.3964 10.662 21.3964 11.0149Z" fill="white"/>
<path d="M5.22788 21.6156C4.9561 21.7348 4.63984 21.792 4.28406 21.792C3.36 21.792 2.80655 21.2436 2.80655 20.3281C2.80655 19.4507 3.40941 18.8641 4.30382 18.8641C4.60525 18.8641 4.94622 18.9261 5.21306 19.0358L5.37612 19.1025L5.43048 18.0964L5.33659 18.0678C4.97092 17.9629 4.52619 17.9009 4.14075 17.9009C2.59901 17.9009 1.47729 18.9213 1.47729 20.3281C1.48224 21.0767 1.73919 21.6966 2.23334 22.1258C2.70278 22.5359 3.36494 22.7552 4.1457 22.7552C4.59537 22.7552 5.03022 22.6837 5.36624 22.5597L5.45025 22.5264L5.39095 21.544L5.22788 21.6156Z" fill="white"/>
<path d="M11.6566 17.9629L9.7937 22.6837H11.0735L11.4936 21.5393H13.2923L13.7024 22.6837H15.0416L13.1737 17.9629H11.6566ZM12.9908 20.6333H11.795L12.4028 19.0549L12.9908 20.6333Z" fill="white"/>
<path d="M20.5861 17.9629H18.8269V22.6837H20.4576C22.1476 22.6837 23.1606 21.7777 23.1606 20.2613C23.1606 18.7831 22.2464 17.9629 20.5861 17.9629ZM21.8363 20.2613C21.8363 21.2389 21.3075 21.7777 20.3093 21.7777H20.1117V18.8689H20.4279C21.3372 18.8689 21.8363 19.3791 21.8363 20.2613Z" fill="white"/>
<path d="M30.7217 10.8247L32.9355 5.52686H33.4691L35.6928 10.8247H35.1838L34.5909 9.35598H31.7989L31.1911 10.8247H30.7217ZM31.9719 8.93158H34.4179L33.1974 5.96556L31.9719 8.93158Z" fill="white"/>
<path d="M36.7949 8.97916C36.7949 9.87087 37.3138 10.4669 38.2675 10.4669C39.2212 10.4669 39.7401 9.87087 39.7401 8.97916V5.52197H40.2342V8.97916C40.2342 10.1474 39.4831 10.9104 38.2675 10.9104C37.0321 10.9104 36.3008 10.157 36.3008 8.97916V5.52197H36.7949V8.97916Z" fill="white"/>
<path d="M42.5862 10.8247V5.95602H40.9802V5.52686H44.6962V5.95602H43.0804V10.8247H42.5862Z" fill="white"/>
<path d="M44.9233 8.17817C44.9233 6.75715 45.7041 5.4458 47.3298 5.4458C49.0001 5.4458 49.7363 6.719 49.7363 8.17817C49.7363 9.60873 48.9556 10.9105 47.3298 10.9105C46.9098 10.9105 46.5491 10.839 46.2427 10.696C45.3384 10.2525 44.9233 9.28923 44.9233 8.17817ZM47.3298 10.4671C48.664 10.4671 49.2175 9.30831 49.2175 8.17817C49.2175 7.04803 48.664 5.88927 47.3298 5.88927C46.0105 5.88927 45.4422 7.0671 45.4422 8.17817C45.4422 8.74085 45.5904 9.30831 45.8968 9.74224C46.2032 10.1666 46.6726 10.4671 47.3298 10.4671Z" fill="white"/>
<path d="M50.9028 10.8247V5.52686H52.1728C53.927 5.52686 55.0141 6.39473 55.0141 8.10186C55.0141 10.0093 53.7047 10.8295 51.8664 10.8295H50.9028V10.8247ZM51.397 10.3955H51.8565C53.4724 10.3955 54.4903 9.74223 54.4903 8.09709C54.4903 6.69038 53.6355 5.95125 52.1827 5.95125H51.392V10.3955H51.397Z" fill="white"/>
<path d="M56.0815 10.8247V5.52686H58.7104V5.95602H56.5757V7.89681H58.5918V8.31168H56.5757V10.3955H58.7994V10.8247H56.0815Z" fill="white"/>
<path d="M59.6839 10.1904C60.0446 10.405 60.4646 10.4669 60.7957 10.4669C61.5122 10.4669 62.0409 10.1475 62.0409 9.41787C62.0409 8.91718 61.6357 8.62153 61.1119 8.33541L60.6178 8.06361C60.1088 7.78703 59.7382 7.45324 59.7382 6.8381C59.7382 5.88439 60.5783 5.44092 61.4331 5.44092C61.7642 5.44092 62.0755 5.4886 62.3967 5.60782L62.3473 6.08467C62.0607 5.95115 61.7395 5.88439 61.4183 5.88439C60.8105 5.88439 60.2472 6.14666 60.2472 6.81425C60.2472 7.25296 60.5289 7.48185 60.9884 7.72981L61.4826 8.00162C62.0607 8.32111 62.5598 8.70259 62.5598 9.42264C62.5598 10.3668 61.7593 10.9104 60.771 10.9104C60.351 10.9104 59.9902 10.8484 59.5999 10.6815L59.6839 10.1904Z" fill="white"/>
<path d="M63.7507 10.8247V5.52686H64.2449V7.9445L66.765 5.52686H67.3975L64.7193 8.01603L67.6249 10.8295H66.9429L64.2399 8.14955V10.8247H63.7507Z" fill="white"/>
<path d="M67.8618 6.09906C67.8618 5.75096 68.1583 5.46484 68.519 5.46484C68.8847 5.46484 69.1762 5.75096 69.1762 6.09906C69.1762 6.45193 68.8798 6.73804 68.519 6.73804C68.4301 6.73804 68.3411 6.72374 68.2621 6.69036C68.0298 6.59022 67.8618 6.3661 67.8618 6.09906ZM68.524 6.64744C68.8303 6.64744 69.0774 6.39948 69.0774 6.10383C69.0774 5.80818 68.8303 5.56021 68.524 5.56021C68.2176 5.56021 67.9705 5.80818 67.9705 6.10383C67.9705 6.25165 68.0298 6.38517 68.1336 6.49008C68.2324 6.58068 68.3708 6.64744 68.524 6.64744ZM68.2769 6.4567V5.71281H68.5091C68.6475 5.71281 68.7661 5.77003 68.7661 5.90832C68.7661 6.00369 68.6722 6.07045 68.5734 6.08952C68.6327 6.10383 68.6673 6.13244 68.692 6.18489L68.8205 6.4567H68.7117L68.5981 6.21827C68.5635 6.14674 68.5339 6.11813 68.435 6.11813H68.3658V6.45193H68.2769V6.4567ZM68.3757 6.03707H68.4647C68.5635 6.03707 68.6623 6.01322 68.6623 5.91309C68.6623 5.81771 68.5586 5.80341 68.4597 5.80341H68.3757V6.03707Z" fill="white"/>
<path d="M31.616 18.8212V14.2338H29.9458V13.5186H34.1955V14.2338H32.5154V18.8212H31.616Z" fill="white"/>
<path d="M35.1936 18.8213V13.5234H36.093V18.8213H35.1936Z" fill="white"/>
<path d="M37.6643 18.8213V13.5234H38.9491L41.3309 18.0392V13.5234H42.1462V18.8213H40.8516L38.4698 14.3055V18.8213H37.6643Z" fill="white"/>
<path d="M43.7129 18.8213V13.5234H44.6122V15.8696L46.826 13.5234H47.9132L45.4325 16.0031L48.1256 18.826H46.9743L44.6122 16.2367V18.826H43.7129V18.8213Z" fill="white"/>
<path d="M49.0742 18.8213V13.5234H52.2269V14.1672H49.9538V15.798H52.1182V16.4322H49.9587V18.1823H52.3158V18.826H49.0742V18.8213Z" fill="white"/>
<path d="M53.5957 18.8213V13.5234H55.2264C56.19 13.5234 57.203 13.7714 57.203 14.892C57.203 15.593 56.6347 16.0698 55.9429 16.17C56.3283 16.2272 56.5853 16.5038 56.7484 16.8948L57.5637 18.826H56.5853L55.9083 17.1809C55.686 16.6421 55.4883 16.4895 54.92 16.4895H54.4753V18.826H53.5957V18.8213ZM54.4753 15.8505H55.0337C55.6365 15.8505 56.2839 15.6264 56.2839 14.954C56.2839 14.2721 55.7255 14.1529 55.0633 14.1529H54.4703V15.8505H54.4753Z" fill="white"/>
<path d="M62.6288 18.6782C62.2434 18.8451 61.7146 18.9071 61.2847 18.9071C59.5404 18.9071 58.3792 17.8723 58.3792 16.1748C58.3792 14.5535 59.6046 13.4424 61.2847 13.4424C61.7048 13.4424 62.2236 13.5044 62.6091 13.6427L62.5596 14.3436C62.2236 14.191 61.769 14.1195 61.3836 14.1195C60.0988 14.1195 59.318 14.9922 59.318 16.1795C59.318 17.405 60.0593 18.2395 61.3687 18.2395C61.7888 18.2395 62.2088 18.1775 62.5794 18.0106L62.6288 18.6782Z" fill="white"/>
<path d="M63.0833 18.8213L65.2229 13.5234H66.3496L68.509 18.8213H67.5701L67.0414 17.4289H64.4965L63.953 18.8213H63.0833ZM64.7238 16.7946H66.824L65.7764 14.1338L64.7238 16.7946Z" fill="white"/>
<path d="M69.4382 18.8213V13.5234H71.1282C72.8973 13.5234 73.935 14.3579 73.935 16.0984C73.935 17.9439 72.6897 18.826 70.8811 18.826H69.4382V18.8213ZM70.3376 18.1775H70.7922C72.2104 18.1775 73.001 17.5004 73.001 16.0937C73.001 14.8777 72.3339 14.1624 71.0393 14.1624H70.3376V18.1775Z" fill="white"/>
<path d="M74.6812 14.0956C74.6812 13.7475 74.9776 13.4614 75.3384 13.4614C75.704 13.4614 75.9956 13.7475 75.9956 14.0956C75.9956 14.4485 75.6991 14.7346 75.3384 14.7346C75.2494 14.7346 75.1605 14.7203 75.0814 14.6869C74.8492 14.5868 74.6812 14.3627 74.6812 14.0956ZM75.3433 14.644C75.6497 14.644 75.8968 14.3961 75.8968 14.1004C75.8968 13.8048 75.6497 13.5568 75.3433 13.5568C75.0369 13.5568 74.7899 13.8048 74.7899 14.1004C74.7899 14.2482 74.8492 14.3818 74.9529 14.4867C75.0518 14.5773 75.1901 14.644 75.3433 14.644ZM75.0962 14.4533V13.7094H75.3285C75.4668 13.7094 75.5854 13.7666 75.5854 13.9049C75.5854 14.0003 75.4916 14.067 75.3927 14.0861C75.452 14.1004 75.4866 14.129 75.5113 14.1815L75.6398 14.4533H75.5311L75.4224 14.2149C75.3878 14.1433 75.3581 14.1147 75.2593 14.1147H75.1901V14.4485H75.0962V14.4533ZM75.1951 14.0336H75.284C75.3828 14.0336 75.4817 14.0098 75.4817 13.9097C75.4817 13.8143 75.3779 13.8 75.2791 13.8H75.1951V14.0336Z" fill="white"/>
</g>
<defs>
<clipPath id="clip0_280_6657">
<rect width="76" height="24" fill="white"/>
</clipPath>
</defs>
</svg>
