<svg width="83" height="18" viewBox="0 0 83 18" fill="none" xmlns="http://www.w3.org/2000/svg">
<g clip-path="url(#clip0_280_6724)">
<path d="M12.9759 18C12.9759 18 21.1142 18 23.1329 17.46C24.2695 17.154 25.1243 16.272 25.4243 15.183C25.979 13.185 25.979 8.982 25.979 8.982C25.979 8.982 25.979 4.806 25.4243 2.826C25.1243 1.71 24.2695 0.845997 23.1329 0.548999C21.1142 -2.14831e-06 12.9759 0 12.9759 0C12.9759 0 4.85572 -2.14831e-06 2.84614 0.548999C1.72769 0.845997 0.854753 1.71 0.536494 2.826C1.5274e-07 4.806 0 8.982 0 8.982C0 8.982 1.5274e-07 13.185 0.536494 15.183C0.854753 16.272 1.72769 17.154 2.84614 17.46C4.85572 18 12.9759 18 12.9759 18Z" fill="#FF0033"/>
<path d="M17.0207 8.9998L10.302 5.1748V12.8248L17.0207 8.9998Z" fill="white"/>
<path d="M33.2688 17.0101V12.0961L36.3774 1.89014H34.0572L32.8747 6.52514C32.6059 7.58714 32.3641 8.69414 32.1849 9.7201H32.0416C31.943 8.82014 31.6564 7.64114 31.3697 6.50714L30.223 1.89014H27.9028L30.9666 12.0961V17.0101H33.2688Z" fill="white"/>
<path d="M39.5056 5.66992C36.7913 5.66992 35.8596 7.24492 35.8596 10.6379V12.2489C35.8596 15.2909 36.4419 17.1989 39.4519 17.1989C42.4171 17.1989 43.0531 15.3809 43.0531 12.2489V10.6379C43.0531 7.60492 42.444 5.66992 39.5056 5.66992ZM40.6613 13.2479C40.6613 14.7239 40.4015 15.6509 39.4608 15.6509C38.5381 15.6509 38.2784 14.7149 38.2784 13.2479V9.61189C38.2784 8.35192 38.4575 7.22692 39.4608 7.22692C40.5179 7.22692 40.6613 8.41492 40.6613 9.61189V13.2479Z" fill="white"/>
<path d="M46.8254 17.1807C48.1333 17.1807 48.9485 16.6317 49.6204 15.6417H49.719L49.8175 17.0097H51.6001V5.88574H49.2352V14.8227C48.9843 15.2637 48.402 15.5877 47.8555 15.5877C47.1657 15.5877 46.9508 15.0387 46.9508 14.1207V5.88574H44.5947V14.2287C44.5947 16.0377 45.1144 17.1807 46.8254 17.1807Z" fill="white"/>
<path d="M56.2809 17.0101V3.73514H59.0042V1.89014H51.2195V3.73514H53.9428V17.0101H56.2809Z" fill="white"/>
<path d="M60.8014 17.1807C62.1093 17.1807 62.9245 16.6317 63.5964 15.6417H63.6949L63.7935 17.0097H65.5762V5.88574H63.2112V14.8227C62.9604 15.2637 62.3781 15.5877 61.8316 15.5877C61.1418 15.5877 60.9268 15.0387 60.9268 14.1207V5.88574H58.5708V14.2287C58.5708 16.0377 59.0904 17.1807 60.8014 17.1807Z" fill="white"/>
<path d="M72.2696 5.6429C71.123 5.6429 70.2988 6.1469 69.7524 6.9659H69.6359C69.7076 5.8859 69.7613 4.9679 69.7613 4.2389V1.2959H67.477L67.468 10.9619L67.477 17.0099H69.4657L69.6359 15.9299H69.6986C70.2272 16.6589 71.0424 17.1179 72.1263 17.1179C73.9269 17.1179 74.6973 15.5609 74.6973 12.2489V10.5299C74.6973 7.4339 74.348 5.6429 72.2696 5.6429ZM72.3503 12.2489C72.3503 14.3189 72.0457 15.5519 71.0872 15.5519C70.6392 15.5519 70.0211 15.3359 69.7434 14.9309V8.3159C69.9853 7.6859 70.5228 7.2269 71.123 7.2269C72.0905 7.2269 72.3503 8.4059 72.3503 10.5569V12.2489Z" fill="white"/>
<path d="M82.9993 10.3497C82.9993 7.66771 82.7306 5.67871 79.6579 5.67871C76.7644 5.67871 76.1194 7.61371 76.1194 10.4577V12.4107C76.1194 15.1827 76.7106 17.1987 79.5862 17.1987C81.8616 17.1987 83.0352 16.0557 82.9008 13.8417L80.8852 13.7337C80.8583 15.1017 80.5448 15.6597 79.64 15.6597C78.5023 15.6597 78.4485 14.5707 78.4485 12.9507V12.1947H82.9993V10.3497ZM79.6042 7.17271C80.6971 7.17271 80.7777 8.20771 80.7777 9.96268V10.8717H78.4485V9.96268C78.4485 8.22571 78.5202 7.17271 79.6042 7.17271Z" fill="white"/>
</g>
<defs>
<clipPath id="clip0_280_6724">
<rect width="83" height="18" fill="white"/>
</clipPath>
</defs>
</svg>
